<svg xmlns="http://www.w3.org/2000/svg" viewBox="0 0 512 512">
  <defs>
    <linearGradient id="bg" x1="0" y1="0" x2="1" y2="1">
      <stop offset="0%" stop-color="#0ea5e9"/>
      <stop offset="55%" stop-color="#2563eb"/>
      <stop offset="100%" stop-color="#7c3aed"/>
    </linearGradient>
    <linearGradient id="spark" x1="0" y1="0" x2="1" y2="1">
      <stop offset="0%" stop-color="#ffffff"/>
      <stop offset="100%" stop-color="#dbeafe"/>
    </linearGradient>
  </defs>
  <rect width="512" height="512" rx="120" fill="url(#bg)"/>
  <circle cx="256" cy="256" r="142" fill="rgba(255,255,255,0.14)" stroke="rgba(255,255,255,0.35)" stroke-width="12"/>
  <path fill="url(#spark)" d="M256 116c11 58 34 81 92 92-58 11-81 34-92 92-11-58-34-81-92-92 58-11 81-34 92-92z"/>
  <path fill="#fff" opacity="0.92" d="M367 292c6 31 18 43 49 49-31 6-43 18-49 49-6-31-18-43-49-49 31-6 43-18 49-49zM151 270c5 24 14 33 38 38-24 5-33 14-38 38-5-24-14-33-38-38 24-5 33-14 38-38z"/>
  <text x="256" y="430" text-anchor="middle" font-family="Arial, Helvetica, sans-serif" font-size="54" font-weight="800" fill="#ffffff">EF</text>
</svg>
